<svg width="100" height="100" viewBox="0 0 100 100" fill="none" xmlns="http://www.w3.org/2000/svg">
<path d="M87.7914 21.7916C81.0831 21.125 74.3748 20.625 67.6248 20.25V20.2083L66.7081 14.7916C66.0831 10.9583 65.1664 5.20831 55.4164 5.20831H44.4998C34.7914 5.20831 33.8748 10.7083 33.2081 14.75L32.3331 20.0833C28.4581 20.3333 24.5831 20.5833 20.7081 20.9583L12.2081 21.7916C10.4581 21.9583 9.20809 23.5 9.37476 25.2083C9.54143 26.9166 11.0414 28.1666 12.7914 28L21.2914 27.1666C43.1248 25 65.1248 25.8333 87.2081 28.0416C87.3331 28.0416 87.4164 28.0416 87.5414 28.0416C89.1248 28.0416 90.4998 26.8333 90.6664 25.2083C90.7914 23.5 89.5414 21.9583 87.7914 21.7916Z" fill="#FF3F3F"/>
<path d="M80.125 33.9167C79.125 32.875 77.75 32.2917 76.3333 32.2917H23.6667C22.25 32.2917 20.8333 32.875 19.875 33.9167C18.9167 34.9584 18.375 36.375 18.4583 37.8334L21.0417 80.5834C21.5 86.9167 22.0833 94.8334 36.625 94.8334H63.375C77.9167 94.8334 78.5 86.9584 78.9583 80.5834L81.5417 37.875C81.625 36.375 81.0833 34.9584 80.125 33.9167ZM56.9167 73.9584H43.0417C41.3333 73.9584 39.9167 72.5417 39.9167 70.8334C39.9167 69.125 41.3333 67.7084 43.0417 67.7084H56.9167C58.625 67.7084 60.0417 69.125 60.0417 70.8334C60.0417 72.5417 58.625 73.9584 56.9167 73.9584ZM60.4167 57.2917H39.5833C37.875 57.2917 36.4583 55.875 36.4583 54.1667C36.4583 52.4584 37.875 51.0417 39.5833 51.0417H60.4167C62.125 51.0417 63.5417 52.4584 63.5417 54.1667C63.5417 55.875 62.125 57.2917 60.4167 57.2917Z" fill="#FF3F3F"/>
</svg>
