<svg width="223" height="170" viewBox="0 0 223 170" fill="none" xmlns="http://www.w3.org/2000/svg">
<path d="M26.1455 133.489L23.8387 124.647L29.8947 123.067L34.266 139.822L5.80297 147.248L3.73845 139.335L26.1455 133.489ZM27.655 113.215C26.1995 115.426 24.279 117.121 21.8934 118.303C19.5078 119.484 16.8723 119.971 13.9868 119.764C11.1014 119.557 8.56246 118.698 6.37011 117.188C4.17776 115.678 2.52612 113.726 1.41519 111.331C0.304253 108.937 -0.152612 106.366 0.0445939 103.62C0.243791 100.845 1.0637 98.3592 2.5043 96.1619C3.94491 93.9646 5.8575 92.2822 8.24207 91.1148C10.6266 89.9473 13.2617 89.4672 16.1471 89.6744C19.0326 89.8816 21.572 90.7332 23.7654 92.2293C25.9587 93.7254 27.6178 95.6712 28.7426 98.0666C29.8674 100.462 30.3312 103.033 30.134 105.78C29.9368 108.527 29.1105 111.005 27.655 113.215ZM20.8745 100.158C19.6016 98.8535 17.8276 98.1196 15.5525 97.9563C13.222 97.7889 11.3405 98.2604 9.90825 99.3707C8.47597 100.481 7.68514 102.077 7.53574 104.157C7.38435 106.266 7.93864 107.965 9.19861 109.255C10.4586 110.545 12.2539 111.273 14.5844 111.44C16.8873 111.606 18.7543 111.14 20.1856 110.044C21.6169 108.947 22.4082 107.345 22.5596 105.236C22.709 103.155 22.1473 101.463 20.8745 100.158ZM17.6844 50.1571L31.2127 68.2359L39.619 72.321L36.0264 79.714L27.6201 75.629L5.04636 76.1641L9.13138 67.7578L21.6004 68.0647L13.6541 58.4508L17.6844 50.1571ZM56.3573 44.7525L48.6964 51.832L50.7885 56.4321L44.4759 62.2657L32.3871 33.3842L39.3125 26.9843L67.1215 41.3386L60.7783 47.2004L56.3573 44.7525ZM50.608 41.5436L41.8226 36.709L45.9809 45.8196L50.608 41.5436ZM74.9743 31.6879L83.2905 27.9012L85.8841 33.5972L70.1252 40.7729L57.9351 14.0017L65.3779 10.6127L74.9743 31.6879ZM106.565 0.213403L107.52 6.65197L99.7607 7.80311L103.122 30.4619L95.0328 31.662L91.6712 9.00324L83.9945 10.1421L83.0393 3.70357L106.565 0.213403ZM145.833 5.36181L131.943 23.1645L130.21 32.3487L122.133 30.8245L123.866 21.6403L117.419 0L126.603 1.73311L129.583 13.8448L136.772 3.6519L145.833 5.36181ZM164.536 21.5736C166.879 20.5177 169.318 20.1683 171.853 20.5255C174.388 20.8826 176.801 21.9447 179.091 23.7118C181.999 25.9545 183.844 28.6168 184.629 31.6987C185.413 34.7806 185.064 37.8749 183.58 40.9816L176.61 35.604C176.871 34.4002 176.811 33.2825 176.43 32.2508C176.049 31.2191 175.374 30.3294 174.405 29.5819C172.907 28.4265 171.3 28.0388 169.584 28.4189C167.868 28.7989 166.322 29.881 164.946 31.6649C163.553 33.4709 162.89 35.2521 162.958 37.0084C163.026 38.7647 163.809 40.2205 165.306 41.3759C166.275 42.1234 167.307 42.5506 168.402 42.6573C169.497 42.7639 170.593 42.5382 171.691 41.98L178.662 47.3576C176.033 49.5808 173.129 50.7041 169.949 50.7277C166.769 50.7512 163.725 49.6416 160.818 47.3989C158.528 45.6318 156.888 43.5676 155.899 41.2063C154.91 38.8449 154.629 36.3972 155.056 33.8631C155.482 31.3291 156.588 28.9058 158.372 26.5932C160.139 24.3027 162.194 22.6295 164.536 21.5736ZM188.232 72.7587L182.99 63.7409L178.044 64.782L173.724 57.3513L204.544 51.8366L209.284 59.9887L189.222 84.0079L184.881 76.5412L188.232 72.7587ZM192.616 67.8455L199.246 60.3226L189.449 62.3987L192.616 67.8455ZM191.973 101.68L201.719 94.142L201.576 93.2776L190.874 95.053L189.535 86.9853L218.554 82.1713L220.664 94.8903C221.051 97.2228 220.974 99.2658 220.433 101.019C219.893 102.772 218.984 104.178 217.707 105.236C216.43 106.293 214.914 106.968 213.158 107.259C211.182 107.587 209.356 107.333 207.681 106.497C206.006 105.661 204.679 104.253 203.702 102.272L193.468 110.695L191.973 101.68ZM207.091 92.3626L207.754 96.3554C207.936 97.453 208.333 98.233 208.946 98.6954C209.558 99.1577 210.358 99.3069 211.346 99.143C212.279 98.9883 212.966 98.5852 213.408 97.9339C213.85 97.2826 213.982 96.4218 213.805 95.3516L213.142 91.3589L207.091 92.3626ZM216.754 139.122C215.095 141.165 213.053 142.587 210.629 143.389C208.205 144.192 205.587 144.319 202.775 143.77C199.99 143.226 197.627 142.121 195.685 140.452C193.744 138.784 192.374 136.689 191.577 134.166C190.779 131.644 190.674 128.882 191.26 125.879L193.489 114.453L222.361 120.087L220.131 131.512C219.54 134.543 218.414 137.079 216.754 139.122ZM199.31 132.551C200.332 134.139 202.017 135.162 204.365 135.62C206.741 136.084 208.707 135.773 210.265 134.689C211.823 133.604 212.831 131.888 213.289 129.54L213.832 126.755L199.008 123.862L198.464 126.647C198.006 128.995 198.288 130.963 199.31 132.551Z" fill="black"/>
<mask id="mask0_37_1514" style="mask-type:luminance" maskUnits="userSpaceOnUse" x="53" y="54" width="116" height="116">
<path d="M53.4847 54.0266H168.655V169.197H53.4847V54.0266Z" fill="white"/>
</mask>
<g mask="url(#mask0_37_1514)">
<mask id="mask1_37_1514" style="mask-type:luminance" maskUnits="userSpaceOnUse" x="53" y="54" width="116" height="116">
<path d="M53.4847 169.214H168.672V54.0266H53.4847V169.214Z" fill="white"/>
</mask>
<g mask="url(#mask1_37_1514)">
<path d="M141.011 133.171C141.011 133.171 161.334 154.664 162.047 154.664C162.759 154.664 163.651 158.276 163.651 158.276L162.759 161.888L160.352 163.875H156.876C156.876 163.875 153.133 160.082 152.331 160.082C151.528 160.082 133.701 141.299 132.988 141.299C132.275 141.299 141.011 133.171 141.011 133.171Z" fill="#F1471D"/>
</g>
<path d="M112.154 90.5838V89.8645C112.154 83.8607 107.799 78.8642 102.085 77.8412V74.6097H97.7697V77.8412C92.0558 78.8642 87.7016 83.8607 87.7016 89.8645C87.7016 95.0435 91.1244 99.5342 96.6343 101.584C97.3802 101.856 98.1314 102.113 98.8875 102.355C100.175 102.776 101.506 103.211 102.728 103.793C105.976 105.336 107.839 107.988 107.839 111.066C107.839 115.428 104.289 118.977 99.9276 118.977C95.6434 118.977 92.0944 115.499 92.0167 111.226L92.0034 110.52H87.6915L87.7016 111.249C87.7824 117.154 92.1316 122.07 97.7697 123.089V126.321H102.085V123.09C107.799 122.066 112.154 117.071 112.154 111.066C112.154 108.336 111.242 105.829 109.366 103.404C107.588 101.106 104.859 99.9226 102.68 99.149C102.081 98.9355 101.468 98.7366 100.85 98.537C98.818 97.8777 96.7157 97.1957 95.0473 95.9497C93.1774 94.5522 92.0167 92.2213 92.0167 89.8645C92.0167 85.5027 95.5651 81.9536 99.9276 81.9536C104.289 81.9536 107.839 85.5027 107.839 89.8645V90.5838H112.154Z" fill="#442C20"/>
<path d="M101.192 150.418C128.054 150.418 149.83 129.216 149.83 103.061M139.327 132.452L162.021 154.549C164.2 156.688 164.193 160.141 162.005 162.272C159.816 164.403 156.27 164.41 154.073 162.288L131.379 140.192M142.543 101.96C142.543 79.1161 123.524 60.5974 100.062 60.5974C76.6013 60.5974 57.582 79.1161 57.582 101.96C57.582 124.805 76.6013 143.323 100.062 143.323C123.524 143.323 142.543 124.805 142.543 101.96Z" stroke="#442C20" stroke-width="5" stroke-miterlimit="10" stroke-linecap="round"/>
</g>
</svg>
